# xmcd
#
# Track frame offsets:
#	150
#	10040
#	23980
#	35557
#	46782
#	66050
#	78120
#	96242
#	106757
#	125937
#	139180
#	155417
#	171975
#	183892
#	201927
#	216420
#	233360
#	250750
#	266377
#	281600
#
# Disc length: 3909 seconds
#
# Revision: 0
# Processed by: cddbd v1.5.2PL0 Copyright (c) Steve Scherf et al.
# Submitted via: EasyCDDAExtractor 4.6.0.1
#
DISCID=0e0f4314
DTITLE=Various Artist - VA - Gold Rush Country
DYEAR=1992
DGENRE=Country
TTITLE0=Vic Carroll - I Wanna Get Close Again
TTITLE1=Paul Mateki - The Man That Time Forgot
TTITLE2=Tracey Lynne - He's Almost You
TTITLE3=Lola Davis - Is Forever Over Yet
TTITLE4=Tony Garron - Holdin' On For Dear Life
TTITLE5=Winston James =Boogie Woogie Barn Dance
TTITLE6=Lynn Johnson - A Part Of You
TTITLE7=Debbie Collins - Repeat Offender
TTITLE8=Vic Carroll - The Blame
TTITLE9=Tom Woodard - If God Don't Like Country Music
TTITLE10=Lola Davis - Tears In My Eyes
TTITLE11=Donna Vallance - Skatin' On Thin Ice
TTITLE12=Terry Dennis - Out Of His Hands
TTITLE13=Tom Stanko - House Of Blue Lights
TTITLE14=PJ Price - Just Another Cowboy
TTITLE15=Lola Davis - Damsel In Distress
TTITLE16=Paul Mateki - Straight To The Top
TTITLE17=Eddie G - Old Man Jukebox
TTITLE18=Tom Woodard - Somebody Up There Likes Me
TTITLE19=Charlie Kyles - It's Taken Years(Just To Call It A Day)
EXTD=
EXTT0=
EXTT1=
EXTT2=
EXTT3=
EXTT4=
EXTT5=
EXTT6=
EXTT7=
EXTT8=
EXTT9=
EXTT10=
EXTT11=
EXTT12=
EXTT13=
EXTT14=
EXTT15=
EXTT16=
EXTT17=
EXTT18=
EXTT19=
PLAYORDER=
